<?xml version="1.0" encoding="utf-8"?>
<!-- Generator: Adobe Illustrator 16.0.0, SVG Export Plug-In . SVG Version: 6.00 Build 0)  -->
<!DOCTYPE svg PUBLIC "-//W3C//DTD SVG 1.1//EN" "http://www.w3.org/Graphics/SVG/1.1/DTD/svg11.dtd">
<svg version="1.1" id="Layer_1" xmlns="http://www.w3.org/2000/svg" xmlns:xlink="http://www.w3.org/1999/xlink" x="0px" y="0px"
	 width="56.69px" height="56.69px" viewBox="0 0 56.69 56.69" enable-background="new 0 0 56.69 56.69" xml:space="preserve">
<g id="XMLID_1_">
	<g>
		<path fill="#D82427" d="M42.22-0.01c0,4.15,0,8.64,0,9.94c-2.47,0-5.14,0-6.41,0c-1.26,0-2.54,1.31-2.54,2.29
			c0,0.97,0,6.53,0,6.53s7.91,0,8.931,0c-0.351,5-1.09,9.58-1.09,9.58H33.22V56.7H21.47V28.33h-5.72v-9.55h5.72c0,0,0-6.38,0-7.81
			c0-1.42-0.29-10.98,12.04-10.98C35.17-0.01,38.92-0.01,42.22-0.01z"/>
	</g>
	<g>
	</g>
</g>
</svg>
