<?xml version="1.0" encoding="utf-8"?>
<!-- Generator: Adobe Illustrator 16.0.0, SVG Export Plug-In . SVG Version: 6.00 Build 0)  -->
<!DOCTYPE svg PUBLIC "-//W3C//DTD SVG 1.1//EN" "http://www.w3.org/Graphics/SVG/1.1/DTD/svg11.dtd">
<svg version="1.1" id="Layer_1" xmlns="http://www.w3.org/2000/svg" xmlns:xlink="http://www.w3.org/1999/xlink" x="0px" y="0px"
	 width="56.69px" height="56.69px" viewBox="0 0 56.69 56.69" enable-background="new 0 0 56.69 56.69" xml:space="preserve">
<g id="XMLID_1_">
	<g>
		<path fill="#D82427" d="M48.46,44.53c1.39,1.39,2.08,3.06,2.08,5c0,1.939-0.69,3.609-2.08,4.989c-1.38,1.391-3.05,2.08-4.99,2.08
			H29.51c-5.82,0-10.79-2.06-14.92-6.21C10.46,46.26,8.4,41.27,8.4,35.44V7.08c0-2,0.69-3.67,2.06-5.04C11.83,0.69,13.52,0,15.5,0
			c1.92,0,3.58,0.7,4.95,2.08c1.38,1.39,2.07,3.05,2.07,5v10.27H42.4c1.8,0,3.35,0.64,4.64,1.92c1.29,1.29,1.93,2.83,1.93,4.64
			c0,1.79-0.64,3.34-1.93,4.63c-1.28,1.28-2.83,1.93-4.62,1.93h-19.9v4.971c0,1.949,0.67,3.6,2.03,4.97
			c1.36,1.359,3.01,2.04,4.95,2.04h13.97C45.41,42.45,47.08,43.15,48.46,44.53z"/>
	</g>
	<g>
	</g>
</g>
</svg>
