<?xml version="1.0" encoding="utf-8"?>
<!-- Generator: Adobe Illustrator 16.0.0, SVG Export Plug-In . SVG Version: 6.00 Build 0)  -->
<!DOCTYPE svg PUBLIC "-//W3C//DTD SVG 1.1//EN" "http://www.w3.org/Graphics/SVG/1.1/DTD/svg11.dtd">
<svg version="1.1" id="Layer_1" xmlns="http://www.w3.org/2000/svg" xmlns:xlink="http://www.w3.org/1999/xlink" x="0px" y="0px"
	 width="56.69px" height="56.69px" viewBox="0 0 56.69 56.69" enable-background="new 0 0 56.69 56.69" xml:space="preserve">
<g id="XMLID_1_">
	<g>
		<path fill="#D82427" d="M56.8,56.69H45.93C45.92,31.35,25.34,10.75,0.03,10.73V-0.11c15.65,0,29.831,6.37,40.121,16.66
			C50.43,26.84,56.8,41.03,56.8,56.69z"/>
		<path fill="#D82427" d="M37.48,56.69H26.59V56.67c-0.01-7.1-2.78-13.81-7.79-18.82c-5.02-5.02-11.71-7.8-18.79-7.8V19.2
			c10.33,0.01,19.68,4.21,26.48,11.01C33.27,37,37.48,46.36,37.48,56.69z"/>
		<path fill="#D82427" d="M12.88,43.8c1.37,1.37,2.21,3.23,2.21,5.311c0,2.069-0.84,3.939-2.21,5.31c-1.38,1.37-3.25,2.2-5.34,2.2
			c-2.08,0-3.95-0.84-5.33-2.2C0.84,53.05,0,51.18,0,49.11c0-2.08,0.84-3.931,2.21-5.311c1.38-1.37,3.25-2.22,5.33-2.22
			C9.63,41.58,11.5,42.43,12.88,43.8z"/>
	</g>
	<g>
	</g>
</g>
</svg>
